<svg xmlns="http://www.w3.org/2000/svg" height="464pt" version="1.1" viewBox="-72 0 464 464" width="464pt">
<g id="surface1">
<path d="M 32 0 L 136 0 L 136 48 L 32 48 Z M 32 0 " style=" stroke:none;fill-rule:nonzero;fill:rgb(57.647059%,45.098039%,31.764706%);fill-opacity:1;" />
<path d="M 184 0 L 288 0 L 288 48 L 184 48 Z M 184 0 " style=" stroke:none;fill-rule:nonzero;fill:rgb(76.862745%,60.392157%,42.352941%);fill-opacity:1;" />
<path d="M 109.0625 101.863281 C 105.734375 108.53125 104 115.878906 104 123.328125 L 104 192 L 152 192 L 152 123.328125 C 152 115.878906 153.734375 108.53125 157.0625 101.863281 L 184 48 L 184 0 L 136 0 L 136 48 Z M 109.0625 101.863281 " style=" stroke:none;fill-rule:nonzero;fill:rgb(100%,68.627451%,27.45098%);fill-opacity:1;" />
<path d="M 77.089844 370.910156 C 95.832031 389.65625 133.824219 382.054688 161.945312 353.945312 C 190.0625 325.832031 197.65625 287.832031 178.910156 269.089844 Z M 77.089844 370.910156 " style=" stroke:none;fill-rule:nonzero;fill:rgb(54.509804%,36.862745%,23.529412%);fill-opacity:1;" />
<path d="M 94.054688 286.054688 C 65.945312 314.175781 58.34375 352.167969 77.089844 370.910156 L 178.910156 269.089844 C 160.167969 250.34375 122.175781 257.945312 94.054688 286.054688 Z M 94.054688 286.054688 " style=" stroke:none;fill-rule:nonzero;fill:rgb(54.509804%,36.862745%,23.529412%);fill-opacity:1;" />
<path d="M 261.0625 101.863281 L 288 48 L 184 48 L 157.0625 101.863281 C 153.734375 108.53125 152 115.878906 152 123.328125 L 152 192 L 136 192 L 136 260.984375 C 152.863281 256.558594 168.726562 258.910156 178.910156 269.089844 C 197.65625 287.832031 190.054688 325.824219 161.945312 353.945312 C 154.347656 361.578125 145.589844 367.964844 136 372.863281 L 136 464 L 256 464 L 256 123.328125 C 256 115.878906 257.734375 108.53125 261.0625 101.863281 Z M 261.0625 101.863281 " style=" stroke:none;fill-rule:nonzero;fill:rgb(81.568627%,68.235294%,53.72549%);fill-opacity:1;" />
<path d="M 77.089844 370.910156 C 58.34375 352.167969 65.945312 314.175781 94.054688 286.054688 C 105.601562 274.171875 120.066406 265.527344 136 260.984375 L 136 192 L 104 192 L 104 123.328125 C 104 115.878906 105.734375 108.53125 109.0625 101.863281 L 136 48 L 32 48 L 5.0625 101.863281 C 1.734375 108.53125 0 115.878906 0 123.328125 L 0 464 L 136 464 L 136 372.863281 C 113.601562 384.183594 90.457031 384.28125 77.089844 370.910156 Z M 77.089844 370.910156 " style=" stroke:none;fill-rule:nonzero;fill:rgb(76.862745%,60.392157%,42.352941%);fill-opacity:1;" />
<path d="M 314.9375 101.863281 L 288 48 L 261.0625 101.863281 C 257.734375 108.53125 256 115.878906 256 123.328125 L 256 464 L 320 464 L 320 123.328125 C 320 115.878906 318.265625 108.53125 314.9375 101.863281 Z M 314.9375 101.863281 " style=" stroke:none;fill-rule:nonzero;fill:rgb(66.27451%,48.627451%,31.372549%);fill-opacity:1;" />
<path d="M 104.296875 389.207031 C 92.085938 389.605469 80.230469 385.042969 71.433594 376.566406 C 60.023438 364.121094 55.769531 346.703125 60.160156 330.398438 C 64.507812 311.332031 74.320312 293.945312 88.398438 280.367188 C 101.972656 266.304688 119.347656 256.503906 138.398438 252.160156 C 154.695312 247.773438 172.101562 252.027344 184.535156 263.433594 C 195.957031 275.871094 200.21875 293.289062 195.839844 309.601562 C 191.492188 328.667969 181.679688 346.054688 167.601562 359.632812 C 154.027344 373.695312 136.652344 383.496094 117.601562 387.839844 C 113.222656 388.734375 108.765625 389.195312 104.296875 389.207031 Z M 151.632812 266.808594 C 148.25 266.824219 144.878906 267.175781 141.566406 267.847656 C 125.597656 271.582031 111.058594 279.875 99.710938 291.71875 C 87.863281 303.070312 79.570312 317.621094 75.839844 333.601562 C 72.636719 344.652344 75.234375 356.570312 82.742188 365.289062 C 91.46875 372.78125 103.378906 375.375 114.433594 372.191406 C 130.402344 368.457031 144.941406 360.164062 156.289062 348.320312 C 168.144531 336.957031 176.4375 322.394531 180.160156 306.398438 C 183.363281 295.347656 180.765625 283.429688 173.257812 274.710938 C 167.40625 269.273438 159.609375 266.421875 151.632812 266.800781 Z M 151.632812 266.808594 " style=" stroke:none;fill-rule:nonzero;fill:rgb(45.882353%,29.803922%,16.078431%);fill-opacity:1;" />
<path d="M 79.863281 373.6875 L 68.550781 362.398438 C 74.832031 355.863281 82.285156 350.566406 90.519531 346.785156 C 97.195312 343.78125 103.222656 339.511719 108.265625 334.207031 C 113.558594 329.160156 117.816406 323.128906 120.800781 316.449219 C 128.730469 300.03125 141.984375 286.78125 158.398438 278.847656 C 165.070312 275.855469 171.09375 271.589844 176.128906 266.289062 L 187.449219 277.601562 C 181.171875 284.132812 173.722656 289.425781 165.488281 293.199219 C 152.242188 299.578125 141.558594 310.273438 135.199219 323.527344 C 131.421875 331.769531 126.128906 339.222656 119.59375 345.503906 C 113.304688 352.039062 105.84375 357.332031 97.601562 361.113281 C 90.929688 364.113281 84.902344 368.386719 79.863281 373.6875 Z M 79.863281 373.6875 " style=" stroke:none;fill-rule:nonzero;fill:rgb(45.882353%,29.803922%,16.078431%);fill-opacity:1;" />
</g>
</svg>